<?xml version="1.0" encoding="utf-8"?>
<!DOCTYPE svg PUBLIC "-//W3C//DTD SVG 20010904//EN" "http://www.w3.org/TR/2001/REC-SVG-20010904/DTD/svg10.dtd">
<svg xmlns="http://www.w3.org/2000/svg" xml:space="preserve" xmlns:xlink="http://www.w3.org/1999/xlink" width="370" height="370" viewBox="0 0 370 370">
<desc></desc>
<rect width="370" height="370" fill="#ffffff" cx="0" cy="0" />
<defs>
<rect id="p" width="10" height="10" />
</defs>
<g fill="#000000">
<use x="20" y="20" xlink:href="#p" />
<use x="30" y="20" xlink:href="#p" />
<use x="40" y="20" xlink:href="#p" />
<use x="50" y="20" xlink:href="#p" />
<use x="60" y="20" xlink:href="#p" />
<use x="70" y="20" xlink:href="#p" />
<use x="80" y="20" xlink:href="#p" />
<use x="110" y="20" xlink:href="#p" />
<use x="120" y="20" xlink:href="#p" />
<use x="130" y="20" xlink:href="#p" />
<use x="140" y="20" xlink:href="#p" />
<use x="160" y="20" xlink:href="#p" />
<use x="170" y="20" xlink:href="#p" />
<use x="180" y="20" xlink:href="#p" />
<use x="220" y="20" xlink:href="#p" />
<use x="230" y="20" xlink:href="#p" />
<use x="240" y="20" xlink:href="#p" />
<use x="280" y="20" xlink:href="#p" />
<use x="290" y="20" xlink:href="#p" />
<use x="300" y="20" xlink:href="#p" />
<use x="310" y="20" xlink:href="#p" />
<use x="320" y="20" xlink:href="#p" />
<use x="330" y="20" xlink:href="#p" />
<use x="340" y="20" xlink:href="#p" />
<use x="20" y="30" xlink:href="#p" />
<use x="80" y="30" xlink:href="#p" />
<use x="120" y="30" xlink:href="#p" />
<use x="170" y="30" xlink:href="#p" />
<use x="180" y="30" xlink:href="#p" />
<use x="200" y="30" xlink:href="#p" />
<use x="220" y="30" xlink:href="#p" />
<use x="240" y="30" xlink:href="#p" />
<use x="280" y="30" xlink:href="#p" />
<use x="340" y="30" xlink:href="#p" />
<use x="20" y="40" xlink:href="#p" />
<use x="40" y="40" xlink:href="#p" />
<use x="50" y="40" xlink:href="#p" />
<use x="60" y="40" xlink:href="#p" />
<use x="80" y="40" xlink:href="#p" />
<use x="100" y="40" xlink:href="#p" />
<use x="110" y="40" xlink:href="#p" />
<use x="130" y="40" xlink:href="#p" />
<use x="140" y="40" xlink:href="#p" />
<use x="160" y="40" xlink:href="#p" />
<use x="170" y="40" xlink:href="#p" />
<use x="180" y="40" xlink:href="#p" />
<use x="220" y="40" xlink:href="#p" />
<use x="230" y="40" xlink:href="#p" />
<use x="260" y="40" xlink:href="#p" />
<use x="280" y="40" xlink:href="#p" />
<use x="300" y="40" xlink:href="#p" />
<use x="310" y="40" xlink:href="#p" />
<use x="320" y="40" xlink:href="#p" />
<use x="340" y="40" xlink:href="#p" />
<use x="20" y="50" xlink:href="#p" />
<use x="40" y="50" xlink:href="#p" />
<use x="50" y="50" xlink:href="#p" />
<use x="60" y="50" xlink:href="#p" />
<use x="80" y="50" xlink:href="#p" />
<use x="100" y="50" xlink:href="#p" />
<use x="110" y="50" xlink:href="#p" />
<use x="140" y="50" xlink:href="#p" />
<use x="170" y="50" xlink:href="#p" />
<use x="200" y="50" xlink:href="#p" />
<use x="210" y="50" xlink:href="#p" />
<use x="230" y="50" xlink:href="#p" />
<use x="240" y="50" xlink:href="#p" />
<use x="250" y="50" xlink:href="#p" />
<use x="280" y="50" xlink:href="#p" />
<use x="300" y="50" xlink:href="#p" />
<use x="310" y="50" xlink:href="#p" />
<use x="320" y="50" xlink:href="#p" />
<use x="340" y="50" xlink:href="#p" />
<use x="20" y="60" xlink:href="#p" />
<use x="40" y="60" xlink:href="#p" />
<use x="50" y="60" xlink:href="#p" />
<use x="60" y="60" xlink:href="#p" />
<use x="80" y="60" xlink:href="#p" />
<use x="100" y="60" xlink:href="#p" />
<use x="110" y="60" xlink:href="#p" />
<use x="140" y="60" xlink:href="#p" />
<use x="160" y="60" xlink:href="#p" />
<use x="170" y="60" xlink:href="#p" />
<use x="180" y="60" xlink:href="#p" />
<use x="190" y="60" xlink:href="#p" />
<use x="220" y="60" xlink:href="#p" />
<use x="260" y="60" xlink:href="#p" />
<use x="280" y="60" xlink:href="#p" />
<use x="300" y="60" xlink:href="#p" />
<use x="310" y="60" xlink:href="#p" />
<use x="320" y="60" xlink:href="#p" />
<use x="340" y="60" xlink:href="#p" />
<use x="20" y="70" xlink:href="#p" />
<use x="80" y="70" xlink:href="#p" />
<use x="100" y="70" xlink:href="#p" />
<use x="110" y="70" xlink:href="#p" />
<use x="120" y="70" xlink:href="#p" />
<use x="140" y="70" xlink:href="#p" />
<use x="190" y="70" xlink:href="#p" />
<use x="210" y="70" xlink:href="#p" />
<use x="230" y="70" xlink:href="#p" />
<use x="240" y="70" xlink:href="#p" />
<use x="280" y="70" xlink:href="#p" />
<use x="340" y="70" xlink:href="#p" />
<use x="20" y="80" xlink:href="#p" />
<use x="30" y="80" xlink:href="#p" />
<use x="40" y="80" xlink:href="#p" />
<use x="50" y="80" xlink:href="#p" />
<use x="60" y="80" xlink:href="#p" />
<use x="70" y="80" xlink:href="#p" />
<use x="80" y="80" xlink:href="#p" />
<use x="100" y="80" xlink:href="#p" />
<use x="120" y="80" xlink:href="#p" />
<use x="140" y="80" xlink:href="#p" />
<use x="160" y="80" xlink:href="#p" />
<use x="180" y="80" xlink:href="#p" />
<use x="200" y="80" xlink:href="#p" />
<use x="220" y="80" xlink:href="#p" />
<use x="240" y="80" xlink:href="#p" />
<use x="260" y="80" xlink:href="#p" />
<use x="280" y="80" xlink:href="#p" />
<use x="290" y="80" xlink:href="#p" />
<use x="300" y="80" xlink:href="#p" />
<use x="310" y="80" xlink:href="#p" />
<use x="320" y="80" xlink:href="#p" />
<use x="330" y="80" xlink:href="#p" />
<use x="340" y="80" xlink:href="#p" />
<use x="100" y="90" xlink:href="#p" />
<use x="110" y="90" xlink:href="#p" />
<use x="140" y="90" xlink:href="#p" />
<use x="150" y="90" xlink:href="#p" />
<use x="180" y="90" xlink:href="#p" />
<use x="190" y="90" xlink:href="#p" />
<use x="200" y="90" xlink:href="#p" />
<use x="210" y="90" xlink:href="#p" />
<use x="220" y="90" xlink:href="#p" />
<use x="260" y="90" xlink:href="#p" />
<use x="20" y="100" xlink:href="#p" />
<use x="40" y="100" xlink:href="#p" />
<use x="50" y="100" xlink:href="#p" />
<use x="60" y="100" xlink:href="#p" />
<use x="70" y="100" xlink:href="#p" />
<use x="80" y="100" xlink:href="#p" />
<use x="110" y="100" xlink:href="#p" />
<use x="120" y="100" xlink:href="#p" />
<use x="130" y="100" xlink:href="#p" />
<use x="180" y="100" xlink:href="#p" />
<use x="200" y="100" xlink:href="#p" />
<use x="210" y="100" xlink:href="#p" />
<use x="220" y="100" xlink:href="#p" />
<use x="230" y="100" xlink:href="#p" />
<use x="280" y="100" xlink:href="#p" />
<use x="290" y="100" xlink:href="#p" />
<use x="300" y="100" xlink:href="#p" />
<use x="310" y="100" xlink:href="#p" />
<use x="320" y="100" xlink:href="#p" />
<use x="20" y="110" xlink:href="#p" />
<use x="30" y="110" xlink:href="#p" />
<use x="100" y="110" xlink:href="#p" />
<use x="110" y="110" xlink:href="#p" />
<use x="120" y="110" xlink:href="#p" />
<use x="150" y="110" xlink:href="#p" />
<use x="170" y="110" xlink:href="#p" />
<use x="180" y="110" xlink:href="#p" />
<use x="190" y="110" xlink:href="#p" />
<use x="260" y="110" xlink:href="#p" />
<use x="280" y="110" xlink:href="#p" />
<use x="330" y="110" xlink:href="#p" />
<use x="40" y="120" xlink:href="#p" />
<use x="50" y="120" xlink:href="#p" />
<use x="60" y="120" xlink:href="#p" />
<use x="80" y="120" xlink:href="#p" />
<use x="100" y="120" xlink:href="#p" />
<use x="120" y="120" xlink:href="#p" />
<use x="130" y="120" xlink:href="#p" />
<use x="140" y="120" xlink:href="#p" />
<use x="150" y="120" xlink:href="#p" />
<use x="160" y="120" xlink:href="#p" />
<use x="190" y="120" xlink:href="#p" />
<use x="240" y="120" xlink:href="#p" />
<use x="250" y="120" xlink:href="#p" />
<use x="280" y="120" xlink:href="#p" />
<use x="290" y="120" xlink:href="#p" />
<use x="330" y="120" xlink:href="#p" />
<use x="50" y="130" xlink:href="#p" />
<use x="90" y="130" xlink:href="#p" />
<use x="140" y="130" xlink:href="#p" />
<use x="150" y="130" xlink:href="#p" />
<use x="170" y="130" xlink:href="#p" />
<use x="180" y="130" xlink:href="#p" />
<use x="190" y="130" xlink:href="#p" />
<use x="200" y="130" xlink:href="#p" />
<use x="250" y="130" xlink:href="#p" />
<use x="260" y="130" xlink:href="#p" />
<use x="270" y="130" xlink:href="#p" />
<use x="280" y="130" xlink:href="#p" />
<use x="310" y="130" xlink:href="#p" />
<use x="320" y="130" xlink:href="#p" />
<use x="330" y="130" xlink:href="#p" />
<use x="340" y="130" xlink:href="#p" />
<use x="20" y="140" xlink:href="#p" />
<use x="30" y="140" xlink:href="#p" />
<use x="50" y="140" xlink:href="#p" />
<use x="60" y="140" xlink:href="#p" />
<use x="80" y="140" xlink:href="#p" />
<use x="120" y="140" xlink:href="#p" />
<use x="130" y="140" xlink:href="#p" />
<use x="140" y="140" xlink:href="#p" />
<use x="160" y="140" xlink:href="#p" />
<use x="170" y="140" xlink:href="#p" />
<use x="180" y="140" xlink:href="#p" />
<use x="220" y="140" xlink:href="#p" />
<use x="230" y="140" xlink:href="#p" />
<use x="250" y="140" xlink:href="#p" />
<use x="270" y="140" xlink:href="#p" />
<use x="310" y="140" xlink:href="#p" />
<use x="320" y="140" xlink:href="#p" />
<use x="340" y="140" xlink:href="#p" />
<use x="20" y="150" xlink:href="#p" />
<use x="30" y="150" xlink:href="#p" />
<use x="60" y="150" xlink:href="#p" />
<use x="110" y="150" xlink:href="#p" />
<use x="130" y="150" xlink:href="#p" />
<use x="170" y="150" xlink:href="#p" />
<use x="190" y="150" xlink:href="#p" />
<use x="200" y="150" xlink:href="#p" />
<use x="270" y="150" xlink:href="#p" />
<use x="20" y="160" xlink:href="#p" />
<use x="30" y="160" xlink:href="#p" />
<use x="40" y="160" xlink:href="#p" />
<use x="50" y="160" xlink:href="#p" />
<use x="60" y="160" xlink:href="#p" />
<use x="80" y="160" xlink:href="#p" />
<use x="90" y="160" xlink:href="#p" />
<use x="110" y="160" xlink:href="#p" />
<use x="120" y="160" xlink:href="#p" />
<use x="140" y="160" xlink:href="#p" />
<use x="160" y="160" xlink:href="#p" />
<use x="170" y="160" xlink:href="#p" />
<use x="180" y="160" xlink:href="#p" />
<use x="190" y="160" xlink:href="#p" />
<use x="200" y="160" xlink:href="#p" />
<use x="220" y="160" xlink:href="#p" />
<use x="250" y="160" xlink:href="#p" />
<use x="270" y="160" xlink:href="#p" />
<use x="280" y="160" xlink:href="#p" />
<use x="310" y="160" xlink:href="#p" />
<use x="320" y="160" xlink:href="#p" />
<use x="340" y="160" xlink:href="#p" />
<use x="30" y="170" xlink:href="#p" />
<use x="40" y="170" xlink:href="#p" />
<use x="100" y="170" xlink:href="#p" />
<use x="130" y="170" xlink:href="#p" />
<use x="170" y="170" xlink:href="#p" />
<use x="200" y="170" xlink:href="#p" />
<use x="240" y="170" xlink:href="#p" />
<use x="250" y="170" xlink:href="#p" />
<use x="260" y="170" xlink:href="#p" />
<use x="270" y="170" xlink:href="#p" />
<use x="290" y="170" xlink:href="#p" />
<use x="300" y="170" xlink:href="#p" />
<use x="320" y="170" xlink:href="#p" />
<use x="340" y="170" xlink:href="#p" />
<use x="20" y="180" xlink:href="#p" />
<use x="30" y="180" xlink:href="#p" />
<use x="40" y="180" xlink:href="#p" />
<use x="60" y="180" xlink:href="#p" />
<use x="80" y="180" xlink:href="#p" />
<use x="100" y="180" xlink:href="#p" />
<use x="140" y="180" xlink:href="#p" />
<use x="150" y="180" xlink:href="#p" />
<use x="160" y="180" xlink:href="#p" />
<use x="170" y="180" xlink:href="#p" />
<use x="180" y="180" xlink:href="#p" />
<use x="200" y="180" xlink:href="#p" />
<use x="220" y="180" xlink:href="#p" />
<use x="230" y="180" xlink:href="#p" />
<use x="290" y="180" xlink:href="#p" />
<use x="300" y="180" xlink:href="#p" />
<use x="310" y="180" xlink:href="#p" />
<use x="320" y="180" xlink:href="#p" />
<use x="330" y="180" xlink:href="#p" />
<use x="340" y="180" xlink:href="#p" />
<use x="30" y="190" xlink:href="#p" />
<use x="100" y="190" xlink:href="#p" />
<use x="130" y="190" xlink:href="#p" />
<use x="140" y="190" xlink:href="#p" />
<use x="150" y="190" xlink:href="#p" />
<use x="170" y="190" xlink:href="#p" />
<use x="180" y="190" xlink:href="#p" />
<use x="200" y="190" xlink:href="#p" />
<use x="220" y="190" xlink:href="#p" />
<use x="240" y="190" xlink:href="#p" />
<use x="310" y="190" xlink:href="#p" />
<use x="330" y="190" xlink:href="#p" />
<use x="20" y="200" xlink:href="#p" />
<use x="30" y="200" xlink:href="#p" />
<use x="40" y="200" xlink:href="#p" />
<use x="50" y="200" xlink:href="#p" />
<use x="60" y="200" xlink:href="#p" />
<use x="80" y="200" xlink:href="#p" />
<use x="120" y="200" xlink:href="#p" />
<use x="140" y="200" xlink:href="#p" />
<use x="150" y="200" xlink:href="#p" />
<use x="200" y="200" xlink:href="#p" />
<use x="210" y="200" xlink:href="#p" />
<use x="220" y="200" xlink:href="#p" />
<use x="240" y="200" xlink:href="#p" />
<use x="260" y="200" xlink:href="#p" />
<use x="280" y="200" xlink:href="#p" />
<use x="290" y="200" xlink:href="#p" />
<use x="310" y="200" xlink:href="#p" />
<use x="20" y="210" xlink:href="#p" />
<use x="40" y="210" xlink:href="#p" />
<use x="50" y="210" xlink:href="#p" />
<use x="70" y="210" xlink:href="#p" />
<use x="90" y="210" xlink:href="#p" />
<use x="100" y="210" xlink:href="#p" />
<use x="110" y="210" xlink:href="#p" />
<use x="120" y="210" xlink:href="#p" />
<use x="130" y="210" xlink:href="#p" />
<use x="140" y="210" xlink:href="#p" />
<use x="180" y="210" xlink:href="#p" />
<use x="250" y="210" xlink:href="#p" />
<use x="260" y="210" xlink:href="#p" />
<use x="270" y="210" xlink:href="#p" />
<use x="300" y="210" xlink:href="#p" />
<use x="320" y="210" xlink:href="#p" />
<use x="330" y="210" xlink:href="#p" />
<use x="40" y="220" xlink:href="#p" />
<use x="60" y="220" xlink:href="#p" />
<use x="80" y="220" xlink:href="#p" />
<use x="90" y="220" xlink:href="#p" />
<use x="100" y="220" xlink:href="#p" />
<use x="120" y="220" xlink:href="#p" />
<use x="160" y="220" xlink:href="#p" />
<use x="200" y="220" xlink:href="#p" />
<use x="210" y="220" xlink:href="#p" />
<use x="230" y="220" xlink:href="#p" />
<use x="240" y="220" xlink:href="#p" />
<use x="250" y="220" xlink:href="#p" />
<use x="270" y="220" xlink:href="#p" />
<use x="310" y="220" xlink:href="#p" />
<use x="340" y="220" xlink:href="#p" />
<use x="20" y="230" xlink:href="#p" />
<use x="30" y="230" xlink:href="#p" />
<use x="50" y="230" xlink:href="#p" />
<use x="70" y="230" xlink:href="#p" />
<use x="90" y="230" xlink:href="#p" />
<use x="100" y="230" xlink:href="#p" />
<use x="120" y="230" xlink:href="#p" />
<use x="140" y="230" xlink:href="#p" />
<use x="150" y="230" xlink:href="#p" />
<use x="160" y="230" xlink:href="#p" />
<use x="170" y="230" xlink:href="#p" />
<use x="180" y="230" xlink:href="#p" />
<use x="190" y="230" xlink:href="#p" />
<use x="220" y="230" xlink:href="#p" />
<use x="230" y="230" xlink:href="#p" />
<use x="260" y="230" xlink:href="#p" />
<use x="290" y="230" xlink:href="#p" />
<use x="310" y="230" xlink:href="#p" />
<use x="320" y="230" xlink:href="#p" />
<use x="330" y="230" xlink:href="#p" />
<use x="340" y="230" xlink:href="#p" />
<use x="20" y="240" xlink:href="#p" />
<use x="50" y="240" xlink:href="#p" />
<use x="60" y="240" xlink:href="#p" />
<use x="80" y="240" xlink:href="#p" />
<use x="130" y="240" xlink:href="#p" />
<use x="140" y="240" xlink:href="#p" />
<use x="150" y="240" xlink:href="#p" />
<use x="160" y="240" xlink:href="#p" />
<use x="190" y="240" xlink:href="#p" />
<use x="200" y="240" xlink:href="#p" />
<use x="210" y="240" xlink:href="#p" />
<use x="250" y="240" xlink:href="#p" />
<use x="260" y="240" xlink:href="#p" />
<use x="280" y="240" xlink:href="#p" />
<use x="290" y="240" xlink:href="#p" />
<use x="300" y="240" xlink:href="#p" />
<use x="320" y="240" xlink:href="#p" />
<use x="340" y="240" xlink:href="#p" />
<use x="20" y="250" xlink:href="#p" />
<use x="40" y="250" xlink:href="#p" />
<use x="50" y="250" xlink:href="#p" />
<use x="70" y="250" xlink:href="#p" />
<use x="90" y="250" xlink:href="#p" />
<use x="110" y="250" xlink:href="#p" />
<use x="120" y="250" xlink:href="#p" />
<use x="140" y="250" xlink:href="#p" />
<use x="150" y="250" xlink:href="#p" />
<use x="180" y="250" xlink:href="#p" />
<use x="190" y="250" xlink:href="#p" />
<use x="210" y="250" xlink:href="#p" />
<use x="220" y="250" xlink:href="#p" />
<use x="260" y="250" xlink:href="#p" />
<use x="270" y="250" xlink:href="#p" />
<use x="290" y="250" xlink:href="#p" />
<use x="300" y="250" xlink:href="#p" />
<use x="310" y="250" xlink:href="#p" />
<use x="330" y="250" xlink:href="#p" />
<use x="20" y="260" xlink:href="#p" />
<use x="40" y="260" xlink:href="#p" />
<use x="60" y="260" xlink:href="#p" />
<use x="80" y="260" xlink:href="#p" />
<use x="90" y="260" xlink:href="#p" />
<use x="100" y="260" xlink:href="#p" />
<use x="110" y="260" xlink:href="#p" />
<use x="120" y="260" xlink:href="#p" />
<use x="140" y="260" xlink:href="#p" />
<use x="150" y="260" xlink:href="#p" />
<use x="200" y="260" xlink:href="#p" />
<use x="210" y="260" xlink:href="#p" />
<use x="220" y="260" xlink:href="#p" />
<use x="230" y="260" xlink:href="#p" />
<use x="240" y="260" xlink:href="#p" />
<use x="260" y="260" xlink:href="#p" />
<use x="270" y="260" xlink:href="#p" />
<use x="280" y="260" xlink:href="#p" />
<use x="290" y="260" xlink:href="#p" />
<use x="300" y="260" xlink:href="#p" />
<use x="310" y="260" xlink:href="#p" />
<use x="320" y="260" xlink:href="#p" />
<use x="330" y="260" xlink:href="#p" />
<use x="100" y="270" xlink:href="#p" />
<use x="150" y="270" xlink:href="#p" />
<use x="170" y="270" xlink:href="#p" />
<use x="190" y="270" xlink:href="#p" />
<use x="220" y="270" xlink:href="#p" />
<use x="240" y="270" xlink:href="#p" />
<use x="250" y="270" xlink:href="#p" />
<use x="260" y="270" xlink:href="#p" />
<use x="300" y="270" xlink:href="#p" />
<use x="310" y="270" xlink:href="#p" />
<use x="330" y="270" xlink:href="#p" />
<use x="20" y="280" xlink:href="#p" />
<use x="30" y="280" xlink:href="#p" />
<use x="40" y="280" xlink:href="#p" />
<use x="50" y="280" xlink:href="#p" />
<use x="60" y="280" xlink:href="#p" />
<use x="70" y="280" xlink:href="#p" />
<use x="80" y="280" xlink:href="#p" />
<use x="110" y="280" xlink:href="#p" />
<use x="140" y="280" xlink:href="#p" />
<use x="160" y="280" xlink:href="#p" />
<use x="170" y="280" xlink:href="#p" />
<use x="190" y="280" xlink:href="#p" />
<use x="220" y="280" xlink:href="#p" />
<use x="240" y="280" xlink:href="#p" />
<use x="260" y="280" xlink:href="#p" />
<use x="280" y="280" xlink:href="#p" />
<use x="300" y="280" xlink:href="#p" />
<use x="310" y="280" xlink:href="#p" />
<use x="340" y="280" xlink:href="#p" />
<use x="20" y="290" xlink:href="#p" />
<use x="80" y="290" xlink:href="#p" />
<use x="100" y="290" xlink:href="#p" />
<use x="150" y="290" xlink:href="#p" />
<use x="160" y="290" xlink:href="#p" />
<use x="190" y="290" xlink:href="#p" />
<use x="200" y="290" xlink:href="#p" />
<use x="220" y="290" xlink:href="#p" />
<use x="250" y="290" xlink:href="#p" />
<use x="260" y="290" xlink:href="#p" />
<use x="300" y="290" xlink:href="#p" />
<use x="320" y="290" xlink:href="#p" />
<use x="340" y="290" xlink:href="#p" />
<use x="20" y="300" xlink:href="#p" />
<use x="40" y="300" xlink:href="#p" />
<use x="50" y="300" xlink:href="#p" />
<use x="60" y="300" xlink:href="#p" />
<use x="80" y="300" xlink:href="#p" />
<use x="100" y="300" xlink:href="#p" />
<use x="140" y="300" xlink:href="#p" />
<use x="160" y="300" xlink:href="#p" />
<use x="180" y="300" xlink:href="#p" />
<use x="210" y="300" xlink:href="#p" />
<use x="230" y="300" xlink:href="#p" />
<use x="240" y="300" xlink:href="#p" />
<use x="260" y="300" xlink:href="#p" />
<use x="270" y="300" xlink:href="#p" />
<use x="280" y="300" xlink:href="#p" />
<use x="290" y="300" xlink:href="#p" />
<use x="300" y="300" xlink:href="#p" />
<use x="310" y="300" xlink:href="#p" />
<use x="330" y="300" xlink:href="#p" />
<use x="340" y="300" xlink:href="#p" />
<use x="20" y="310" xlink:href="#p" />
<use x="40" y="310" xlink:href="#p" />
<use x="50" y="310" xlink:href="#p" />
<use x="60" y="310" xlink:href="#p" />
<use x="80" y="310" xlink:href="#p" />
<use x="100" y="310" xlink:href="#p" />
<use x="110" y="310" xlink:href="#p" />
<use x="120" y="310" xlink:href="#p" />
<use x="140" y="310" xlink:href="#p" />
<use x="170" y="310" xlink:href="#p" />
<use x="190" y="310" xlink:href="#p" />
<use x="200" y="310" xlink:href="#p" />
<use x="260" y="310" xlink:href="#p" />
<use x="270" y="310" xlink:href="#p" />
<use x="280" y="310" xlink:href="#p" />
<use x="290" y="310" xlink:href="#p" />
<use x="20" y="320" xlink:href="#p" />
<use x="40" y="320" xlink:href="#p" />
<use x="50" y="320" xlink:href="#p" />
<use x="60" y="320" xlink:href="#p" />
<use x="80" y="320" xlink:href="#p" />
<use x="100" y="320" xlink:href="#p" />
<use x="110" y="320" xlink:href="#p" />
<use x="120" y="320" xlink:href="#p" />
<use x="130" y="320" xlink:href="#p" />
<use x="170" y="320" xlink:href="#p" />
<use x="180" y="320" xlink:href="#p" />
<use x="200" y="320" xlink:href="#p" />
<use x="230" y="320" xlink:href="#p" />
<use x="240" y="320" xlink:href="#p" />
<use x="270" y="320" xlink:href="#p" />
<use x="300" y="320" xlink:href="#p" />
<use x="320" y="320" xlink:href="#p" />
<use x="20" y="330" xlink:href="#p" />
<use x="80" y="330" xlink:href="#p" />
<use x="110" y="330" xlink:href="#p" />
<use x="140" y="330" xlink:href="#p" />
<use x="170" y="330" xlink:href="#p" />
<use x="190" y="330" xlink:href="#p" />
<use x="200" y="330" xlink:href="#p" />
<use x="250" y="330" xlink:href="#p" />
<use x="260" y="330" xlink:href="#p" />
<use x="270" y="330" xlink:href="#p" />
<use x="280" y="330" xlink:href="#p" />
<use x="290" y="330" xlink:href="#p" />
<use x="300" y="330" xlink:href="#p" />
<use x="310" y="330" xlink:href="#p" />
<use x="340" y="330" xlink:href="#p" />
<use x="20" y="340" xlink:href="#p" />
<use x="30" y="340" xlink:href="#p" />
<use x="40" y="340" xlink:href="#p" />
<use x="50" y="340" xlink:href="#p" />
<use x="60" y="340" xlink:href="#p" />
<use x="70" y="340" xlink:href="#p" />
<use x="80" y="340" xlink:href="#p" />
<use x="100" y="340" xlink:href="#p" />
<use x="110" y="340" xlink:href="#p" />
<use x="120" y="340" xlink:href="#p" />
<use x="130" y="340" xlink:href="#p" />
<use x="160" y="340" xlink:href="#p" />
<use x="170" y="340" xlink:href="#p" />
<use x="180" y="340" xlink:href="#p" />
<use x="220" y="340" xlink:href="#p" />
<use x="230" y="340" xlink:href="#p" />
<use x="250" y="340" xlink:href="#p" />
<use x="280" y="340" xlink:href="#p" />
<use x="300" y="340" xlink:href="#p" />
<use x="310" y="340" xlink:href="#p" />
<use x="320" y="340" xlink:href="#p" />
</g>
</svg>